{"title":"Global Baba Hindi 2016 DesiSCR x264-Hindify.mp4","uid":15577882,"size":1049929999,"categoryP":"video","categoryS":"movies","magnet":"?xt=urn:btih:c681ae5b365bbdea318b4b5eac549d5d5e14ec77&amp;dn=Global+Baba+Hindi+2016+DesiSCR+x264-Hindify.mp4&amp;tr=udp%3A%2F%2Ftracker.leechers-paradise.org%3A6969&amp;tr=udp%3A%2F%2Fzer0day.ch%3A1337&amp;tr=udp%3A%2F%2Fopen.demonii.com%3A1337&amp;tr=udp%3A%2F%2Ftracker.coppersurfer.tk%3A6969&amp;tr=udp%3A%2F%2Fexodus.desync.com%3A6969","seeders":1,"leechers":0,"uploader":null,"files":1,"time":1471364888,"description":"Global Baba Hindi 2016 DesiSCR x264-Hindify.mp4\r\n\r\nScreens:\r\n \nhttp://extraimago.com/images/2016/08/16/vlcsnap-2016-08-16-11h26m01s377.png \nhttp://extraimago.com/images/2016/08/16/vlcsnap-2016-08-16-11h25m58s339.png \nhttp://extraimago.com/images/2016/08/16/vlcsnap-2016-08-16-11h25m55s004.png \nhttp://extraimago.com/images/2016/08/16/vlcsnap-2016-08-16-11h25m51s438.png \nhttp://extraimago.com/images/2016/08/16/vlcsnap-2016-08-16-11h25m45s729.png\r\n\r\nInfo:\r\n\r\nFormat : MPEG-4\r\nFormat profile : Base Media\r\nCodec ID : isom (isom/iso2/avc1/mp41)\r\nFile size : 1 001 MiB\r\nDuration : 1 h 57 min\r\nOverall bit rate : 1 193 kb/s\r\nWriting application : Lavf57.20.100\r\n\r\nVideo\r\nID : 1\r\nFormat : AVC\r\nFormat/Info : Advanced Video Codec\r\nFormat profile :   \r\nFormat settings, CABAC : Yes\r\nFormat settings, ReFrames : 5 frames\r\nCodec ID : avc1\r\nCodec ID/Info : Advanced Video Coding\r\nDuration : 1 h 57 min\r\nBit rate : 1 124 kb/s\r\nWidth : 1 280 pixels\r\nHeight : 544 pixels\r\nDisplay aspect ratio : 2.35:1\r\nFrame rate mode : Variable\r\nFrame rate : 23.976 (24000/1001) FPS\r\nMinimum frame rate : 23.810 FPS\r\nMaximum frame rate : 24.390 FPS\r\nColor space : YUV\r\nChroma subsampling : 4:2:0\r\nBit depth : 8 bits\r\nScan type : Progressive\r\nBits/(Pixel*Frame) : 0.067\r\nStream size : 943 MiB (94%)\r\nWriting library : x264 core 133 r2334 a3ac64b\r\nEncoding settings : cabac=1 / ref=5 / deblock=1:-1:-1 / analyse=0x3:0x113 / me=umh / subme=7 / psy=1 / psy_rd=1.00:0.00 / mixed_ref=1 / me_range=16 / chroma_me=1 / trellis=2 / 8x8dct=1 / cqm=0 / deadzone=21,11 / fast_pskip=1 / chroma_qp_offset=-2 / threads=48 / lookahead_threads=4 / sliced_threads=0 / nr=0 / decimate=1 / interlaced=0 / bluray_compat=0 / constrained_intra=0 / bframes=3 / b_pyramid=0 / b_adapt=1 / b_bias=0 / direct=3 / weightb=1 / open_gop=0 / weightp=2 / keyint=240 / keyint_min=23 / scenecut=40 / intra_refresh=0 / rc_lookahead=40 / rc=2pass / mbtree=1 / bitrate=1124 / ratetol=1.0 / qcomp=0.60 / qpmin=10 / qpmax=51 / qpstep=4 / cplxblur=20.0 / qblur=0.5 / vbv_maxrate=20000 / vbv_bufsize=25000 / nal_hrd=none / ip_ratio=1.40 / aq=1:1.00\r\n\r\nAudio\r\nID : 2\r\nFormat : AAC\r\nFormat/Info : Advanced Audio Codec\r\nFormat profile : HE-AAC / LC\r\nCodec ID : 40\r\nDuration : 1 h 57 min\r\nBit rate mode : Constant\r\nBit rate : 63.9 kb/s\r\nChannel(s) : 2 channels\r\nChannel positions : Front: L R\r\nSampling rate : 48.0 kHz / 24.0 kHz\r\nFrame rate : 23.438 FPS (1024 spf)\r\nCompression mode : Lossy\r\nStream size : 53.6 MiB (5%)\r\nLanguage : Hindi\r\nDefault : Yes\r\nAlternate group : 1 \r\n \nhttp://tvmoviereviews.drupalgardens.com/content/global-baba-review","torrent":{"xt":"urn:btih:c681ae5b365bbdea318b4b5eac549d5d5e14ec77","amp;dn":"Global+Baba+Hindi+2016+DesiSCR+x264-Hindify.mp4","amp;tr":["udp%3A%2F%2Ftracker.leechers-paradise.org%3A6969","udp%3A%2F%2Fzer0day.ch%3A1337","udp%3A%2F%2Fopen.demonii.com%3A1337","udp%3A%2F%2Ftracker.coppersurfer.tk%3A6969","udp%3A%2F%2Fexodus.desync.com%3A6969"],"infoHash":"c681ae5b365bbdea318b4b5eac549d5d5e14ec77","infoHashBuffer":{"type":"Buffer","data":[198,129,174,91,54,91,189,234,49,139,75,94,172,84,157,93,94,20,236,119]},"announce":[],"urlList":[]}}